<svg xmlns="http://www.w3.org/2000/svg" xmlns:xlink="http://www.w3.org/1999/xlink" width="100" zoomAndPan="magnify" viewBox="0 0 75 30.000001" height="40" preserveAspectRatio="xMidYMid meet" version="1.0"><defs><g/></defs><g fill="#ff914d" fill-opacity="1"><g transform="translate(9.787, 22.232377)"><g><path d="M 4.015625 -4.90625 C 3.867188 -5.0625 3.710938 -5.179688 3.546875 -5.265625 C 3.390625 -5.347656 3.207031 -5.390625 3 -5.390625 C 2.738281 -5.390625 2.515625 -5.328125 2.328125 -5.203125 C 2.148438 -5.085938 2.007812 -4.925781 1.90625 -4.71875 C 1.800781 -4.507812 1.722656 -4.265625 1.671875 -3.984375 C 1.617188 -3.710938 1.59375 -3.414062 1.59375 -3.09375 C 1.59375 -2.769531 1.613281 -2.46875 1.65625 -2.1875 C 1.707031 -1.914062 1.785156 -1.671875 1.890625 -1.453125 C 2.003906 -1.242188 2.15625 -1.078125 2.34375 -0.953125 C 2.539062 -0.835938 2.785156 -0.78125 3.078125 -0.78125 C 3.210938 -0.78125 3.34375 -0.789062 3.46875 -0.8125 C 3.601562 -0.84375 3.722656 -0.867188 3.828125 -0.890625 C 3.929688 -0.921875 4.015625 -0.945312 4.078125 -0.96875 C 4.148438 -0.988281 4.195312 -1.003906 4.21875 -1.015625 L 4.46875 -0.25 L 4.359375 -0.203125 C 4.273438 -0.171875 4.160156 -0.132812 4.015625 -0.09375 C 3.878906 -0.0625 3.710938 -0.03125 3.515625 0 C 3.316406 0.03125 3.101562 0.046875 2.875 0.046875 C 2.0625 0.046875 1.445312 -0.207031 1.03125 -0.71875 C 0.625 -1.238281 0.421875 -2 0.421875 -3 C 0.421875 -3.476562 0.472656 -3.914062 0.578125 -4.3125 C 0.691406 -4.707031 0.859375 -5.046875 1.078125 -5.328125 C 1.304688 -5.609375 1.585938 -5.828125 1.921875 -5.984375 C 2.253906 -6.148438 2.648438 -6.234375 3.109375 -6.234375 C 3.472656 -6.234375 3.769531 -6.164062 4 -6.03125 C 4.226562 -5.894531 4.414062 -5.742188 4.5625 -5.578125 Z M 4.015625 -4.90625 "/></g></g></g><g fill="#ff914d" fill-opacity="1"><g transform="translate(14.47207, 22.232377)"><g><path d="M 4.25 -2.796875 L 1.71875 -2.796875 L 1.71875 0 L 0.640625 0 L 0.640625 -6.140625 L 1.71875 -6.140625 L 1.71875 -3.578125 L 4.25 -3.578125 L 4.25 -6.140625 L 5.328125 -6.140625 L 5.328125 0 L 4.25 0 Z M 4.25 -2.796875 "/></g></g></g><g fill="#ff914d" fill-opacity="1"><g transform="translate(20.373806, 22.232377)"><g><path d="M 0.640625 -6.140625 L 1.71875 -6.140625 L 1.71875 0 L 0.640625 0 Z M 0.640625 -6.140625 "/></g></g></g><g fill="#ff914d" fill-opacity="1"><g transform="translate(22.661864, 22.232377)"><g><path d="M 4.265625 -6.140625 L 5.34375 -6.140625 L 5.34375 0.015625 L 4.453125 0.015625 L 2.375 -3.21875 C 2.257812 -3.394531 2.132812 -3.59375 2 -3.8125 C 1.863281 -4.039062 1.734375 -4.25 1.609375 -4.4375 C 1.628906 -4.238281 1.644531 -4.03125 1.65625 -3.8125 C 1.675781 -3.601562 1.6875 -3.40625 1.6875 -3.21875 L 1.71875 0 L 0.640625 0 L 0.640625 -6.15625 L 1.484375 -6.15625 L 3.609375 -2.96875 C 3.734375 -2.789062 3.859375 -2.601562 3.984375 -2.40625 C 4.109375 -2.207031 4.226562 -2.019531 4.34375 -1.84375 C 4.332031 -2.039062 4.320312 -2.234375 4.3125 -2.421875 C 4.300781 -2.617188 4.296875 -2.789062 4.296875 -2.9375 Z M 4.265625 -6.140625 "/></g></g></g><g fill="#ff914d" fill-opacity="1"><g transform="translate(28.581759, 22.232377)"><g><path d="M 2.3125 -6.140625 L 3.171875 -6.140625 L 5.53125 0 L 4.390625 0 L 3.828125 -1.609375 L 1.609375 -1.609375 L 1.03125 0 L -0.046875 0 Z M 3.546875 -2.40625 C 3.347656 -2.945312 3.175781 -3.441406 3.03125 -3.890625 C 2.894531 -4.335938 2.789062 -4.6875 2.71875 -4.9375 C 2.632812 -4.664062 2.519531 -4.304688 2.375 -3.859375 C 2.238281 -3.421875 2.078125 -2.9375 1.890625 -2.40625 Z M 3.546875 -2.40625 "/></g></g></g><g fill="#ff914d" fill-opacity="1"><g transform="translate(34.011356, 22.232377)"><g><path d="M 2.3125 -6.140625 L 3.171875 -6.140625 L 5.53125 0 L 4.390625 0 L 3.828125 -1.609375 L 1.609375 -1.609375 L 1.03125 0 L -0.046875 0 Z M 3.546875 -2.40625 C 3.347656 -2.945312 3.175781 -3.441406 3.03125 -3.890625 C 2.894531 -4.335938 2.789062 -4.6875 2.71875 -4.9375 C 2.632812 -4.664062 2.519531 -4.304688 2.375 -3.859375 C 2.238281 -3.421875 2.078125 -2.9375 1.890625 -2.40625 Z M 3.546875 -2.40625 "/></g></g></g><g fill="#ff914d" fill-opacity="1"><g transform="translate(39.440953, 22.232377)"><g><path d="M 4.078125 0 L 3.328125 0 L 2.296875 -2.328125 C 2.265625 -2.398438 2.222656 -2.492188 2.171875 -2.609375 C 2.128906 -2.722656 2.082031 -2.847656 2.03125 -2.984375 C 1.976562 -3.128906 1.921875 -3.273438 1.859375 -3.421875 C 1.796875 -3.578125 1.738281 -3.734375 1.6875 -3.890625 C 1.6875 -3.734375 1.679688 -3.578125 1.671875 -3.421875 C 1.671875 -3.273438 1.664062 -3.128906 1.65625 -2.984375 C 1.65625 -2.847656 1.65625 -2.726562 1.65625 -2.625 C 1.65625 -2.519531 1.65625 -2.4375 1.65625 -2.375 L 1.5625 0 L 0.546875 0 L 0.90625 -6.15625 L 1.75 -6.15625 L 3.296875 -2.3125 C 3.359375 -2.175781 3.421875 -2.023438 3.484375 -1.859375 C 3.554688 -1.691406 3.625 -1.53125 3.6875 -1.375 C 3.75 -1.53125 3.8125 -1.6875 3.875 -1.84375 C 3.9375 -2.007812 4 -2.164062 4.0625 -2.3125 L 5.625 -6.15625 L 6.453125 -6.15625 L 6.8125 0 L 5.8125 0 L 5.703125 -2.34375 C 5.703125 -2.5 5.695312 -2.71875 5.6875 -3 C 5.675781 -3.28125 5.671875 -3.566406 5.671875 -3.859375 C 5.609375 -3.703125 5.546875 -3.546875 5.484375 -3.390625 C 5.429688 -3.242188 5.378906 -3.101562 5.328125 -2.96875 C 5.285156 -2.84375 5.242188 -2.722656 5.203125 -2.609375 C 5.160156 -2.503906 5.128906 -2.421875 5.109375 -2.359375 Z M 4.078125 0 "/></g></g></g><g fill="#ff914d" fill-opacity="1"><g transform="translate(46.740945, 22.232377)"><g><path d="M 0.640625 -6.140625 L 1.71875 -6.140625 L 1.71875 0 L 0.640625 0 Z M 0.640625 -6.140625 "/></g></g></g><g fill="#ff914d" fill-opacity="1"><g transform="translate(49.029004, 22.232377)"><g><path d="M 0.640625 -6.140625 C 0.679688 -6.140625 0.773438 -6.140625 0.921875 -6.140625 C 1.078125 -6.148438 1.25 -6.15625 1.4375 -6.15625 C 1.625 -6.15625 1.8125 -6.15625 2 -6.15625 C 2.1875 -6.15625 2.335938 -6.15625 2.453125 -6.15625 C 3.203125 -6.15625 3.75 -6.007812 4.09375 -5.71875 C 4.445312 -5.425781 4.625 -5.015625 4.625 -4.484375 C 4.625 -4.128906 4.535156 -3.816406 4.359375 -3.546875 C 4.179688 -3.273438 3.894531 -3.078125 3.5 -2.953125 C 3.664062 -2.859375 3.816406 -2.726562 3.953125 -2.5625 C 4.085938 -2.394531 4.21875 -2.1875 4.34375 -1.9375 C 4.46875 -1.695312 4.59375 -1.410156 4.71875 -1.078125 C 4.851562 -0.753906 5.007812 -0.394531 5.1875 0 L 4.015625 0 C 3.816406 -0.476562 3.640625 -0.882812 3.484375 -1.21875 C 3.328125 -1.5625 3.175781 -1.835938 3.03125 -2.046875 C 2.882812 -2.265625 2.726562 -2.421875 2.5625 -2.515625 C 2.394531 -2.609375 2.203125 -2.65625 1.984375 -2.65625 L 1.71875 -2.65625 L 1.71875 0 L 0.640625 0 Z M 1.71875 -3.453125 L 2.421875 -3.453125 C 2.753906 -3.453125 3.015625 -3.523438 3.203125 -3.671875 C 3.390625 -3.828125 3.484375 -4.050781 3.484375 -4.34375 C 3.484375 -4.476562 3.460938 -4.609375 3.421875 -4.734375 C 3.390625 -4.859375 3.328125 -4.96875 3.234375 -5.0625 C 3.148438 -5.164062 3.03125 -5.242188 2.875 -5.296875 C 2.726562 -5.359375 2.546875 -5.390625 2.328125 -5.390625 L 1.71875 -5.390625 Z M 1.71875 -3.453125 "/></g></g></g><g fill="#ff914d" fill-opacity="1"><g transform="translate(54.177132, 22.232377)"><g><path d="M 2.3125 -6.140625 L 3.171875 -6.140625 L 5.53125 0 L 4.390625 0 L 3.828125 -1.609375 L 1.609375 -1.609375 L 1.03125 0 L -0.046875 0 Z M 3.546875 -2.40625 C 3.347656 -2.945312 3.175781 -3.441406 3.03125 -3.890625 C 2.894531 -4.335938 2.789062 -4.6875 2.71875 -4.9375 C 2.632812 -4.664062 2.519531 -4.304688 2.375 -3.859375 C 2.238281 -3.421875 2.078125 -2.9375 1.890625 -2.40625 Z M 3.546875 -2.40625 "/></g></g></g><g fill="#ff914d" fill-opacity="1"><g transform="translate(59.606727, 22.232377)"><g><path d="M 4.078125 0 L 3.328125 0 L 2.296875 -2.328125 C 2.265625 -2.398438 2.222656 -2.492188 2.171875 -2.609375 C 2.128906 -2.722656 2.082031 -2.847656 2.03125 -2.984375 C 1.976562 -3.128906 1.921875 -3.273438 1.859375 -3.421875 C 1.796875 -3.578125 1.738281 -3.734375 1.6875 -3.890625 C 1.6875 -3.734375 1.679688 -3.578125 1.671875 -3.421875 C 1.671875 -3.273438 1.664062 -3.128906 1.65625 -2.984375 C 1.65625 -2.847656 1.65625 -2.726562 1.65625 -2.625 C 1.65625 -2.519531 1.65625 -2.4375 1.65625 -2.375 L 1.5625 0 L 0.546875 0 L 0.90625 -6.15625 L 1.75 -6.15625 L 3.296875 -2.3125 C 3.359375 -2.175781 3.421875 -2.023438 3.484375 -1.859375 C 3.554688 -1.691406 3.625 -1.53125 3.6875 -1.375 C 3.75 -1.53125 3.8125 -1.6875 3.875 -1.84375 C 3.9375 -2.007812 4 -2.164062 4.0625 -2.3125 L 5.625 -6.15625 L 6.453125 -6.15625 L 6.8125 0 L 5.8125 0 L 5.703125 -2.34375 C 5.703125 -2.5 5.695312 -2.71875 5.6875 -3 C 5.675781 -3.28125 5.671875 -3.566406 5.671875 -3.859375 C 5.609375 -3.703125 5.546875 -3.546875 5.484375 -3.390625 C 5.429688 -3.242188 5.378906 -3.101562 5.328125 -2.96875 C 5.285156 -2.84375 5.242188 -2.722656 5.203125 -2.609375 C 5.160156 -2.503906 5.128906 -2.421875 5.109375 -2.359375 Z M 4.078125 0 "/></g></g></g><g fill="#00bf63" fill-opacity="1"><g transform="translate(22.303151, 15.2299)"><g><path d="M 3.5 -1.59375 C 3.5 -1.914062 3.390625 -2.148438 3.171875 -2.296875 C 2.960938 -2.441406 2.75 -2.515625 2.53125 -2.515625 C 2.320312 -2.515625 2.125 -2.410156 1.9375 -2.203125 C 1.75 -1.992188 1.65625 -1.796875 1.65625 -1.609375 C 1.65625 -1.429688 1.726562 -1.269531 1.875 -1.125 C 2.019531 -0.988281 2.203125 -0.921875 2.421875 -0.921875 C 2.640625 -0.921875 2.875 -1.003906 3.125 -1.171875 C 3.375 -1.347656 3.5 -1.488281 3.5 -1.59375 Z M 5.984375 0.15625 C 5.191406 0.15625 4.578125 -0.222656 4.140625 -0.984375 C 3.878906 -0.585938 3.578125 -0.289062 3.234375 -0.09375 C 2.890625 0.09375 2.515625 0.1875 2.109375 0.1875 C 1.703125 0.1875 1.332031 0.0664062 1 -0.171875 C 0.664062 -0.421875 0.5 -0.785156 0.5 -1.265625 C 0.5 -1.753906 0.707031 -2.238281 1.125 -2.71875 C 1.539062 -3.195312 2.082031 -3.4375 2.75 -3.4375 C 3.414062 -3.4375 4.003906 -3.03125 4.515625 -2.21875 C 5.023438 -1.40625 5.609375 -1 6.265625 -1 C 6.648438 -1 7.039062 -1.191406 7.4375 -1.578125 C 7.832031 -1.960938 8.03125 -2.503906 8.03125 -3.203125 C 8.03125 -3.898438 7.832031 -4.484375 7.4375 -4.953125 C 6.832031 -5.703125 5.8125 -6.09375 4.375 -6.125 C 4.332031 -6.113281 4.289062 -6.109375 4.25 -6.109375 L 2.359375 -6.109375 C 1.953125 -6.109375 1.609375 -6.210938 1.328125 -6.421875 C 1.054688 -6.628906 0.921875 -6.832031 0.921875 -7.03125 C 0.921875 -7.507812 1.453125 -8.054688 2.515625 -8.671875 C 3.578125 -9.296875 4.382812 -9.882812 4.9375 -10.4375 C 5.195312 -10.707031 5.503906 -11.109375 5.859375 -11.640625 C 6.222656 -12.179688 6.523438 -12.453125 6.765625 -12.453125 C 7.171875 -12.453125 7.375 -12.316406 7.375 -12.046875 L 7.359375 -11.921875 C 7.171875 -11.328125 6.835938 -10.78125 6.359375 -10.28125 C 6.085938 -9.988281 5.671875 -9.625 5.109375 -9.1875 C 4.546875 -8.757812 3.953125 -8.375 3.328125 -8.03125 C 2.710938 -7.6875 2.40625 -7.445312 2.40625 -7.3125 C 2.40625 -7.1875 2.488281 -7.125 2.65625 -7.125 C 2.726562 -7.125 2.785156 -7.117188 2.828125 -7.109375 L 4.28125 -7.109375 C 5.757812 -7.097656 6.945312 -6.726562 7.84375 -6 C 8.738281 -5.28125 9.1875 -4.304688 9.1875 -3.078125 C 9.175781 -2.953125 9.160156 -2.832031 9.140625 -2.71875 C 9.222656 -2.644531 9.265625 -2.566406 9.265625 -2.484375 C 9.316406 -2.066406 9.59375 -1.71875 10.09375 -1.4375 C 10.59375 -1.15625 11.171875 -1.015625 11.828125 -1.015625 C 12.484375 -1.015625 13.023438 -1.175781 13.453125 -1.5 C 13.878906 -1.832031 14.09375 -2.273438 14.09375 -2.828125 C 14.09375 -3.890625 13.21875 -4.957031 11.46875 -6.03125 C 10.625 -6.5625 10.203125 -6.945312 10.203125 -7.1875 C 10.203125 -7.394531 10.257812 -7.539062 10.375 -7.625 C 10.476562 -7.757812 10.640625 -7.828125 10.859375 -7.828125 C 11.085938 -7.828125 11.484375 -7.585938 12.046875 -7.109375 C 12.609375 -6.640625 13.09375 -6.238281 13.5 -5.90625 C 13.914062 -5.582031 14.304688 -5.109375 14.671875 -4.484375 C 15.046875 -3.867188 15.234375 -3.296875 15.234375 -2.765625 C 15.285156 -1.816406 14.976562 -1.09375 14.3125 -0.59375 C 13.644531 -0.09375 12.691406 0.15625 11.453125 0.15625 C 10.222656 0.15625 9.253906 -0.28125 8.546875 -1.15625 C 7.910156 -0.28125 7.054688 0.15625 5.984375 0.15625 Z M 5.984375 0.15625 "/></g></g></g><g fill="#00bf63" fill-opacity="1"><g transform="translate(37.958043, 15.2299)"><g><path d="M 4.796875 -7.09375 C 6.378906 -6.988281 7.617188 -6.484375 8.515625 -5.578125 C 9.222656 -4.859375 9.578125 -4.101562 9.578125 -3.3125 C 9.597656 -2.414062 9.296875 -1.613281 8.671875 -0.90625 C 7.972656 -0.132812 7.085938 0.25 6.015625 0.25 C 5.296875 0.25 4.601562 0.0546875 3.9375 -0.328125 L 3.78125 -0.421875 C 3.269531 -0.765625 2.894531 -0.9375 2.65625 -0.9375 C 2.425781 -0.9375 2.203125 -0.789062 1.984375 -0.5 C 1.765625 -0.207031 1.65625 0.210938 1.65625 0.765625 C 1.65625 1.328125 1.796875 1.851562 2.078125 2.34375 C 2.128906 2.457031 2.082031 2.570312 1.9375 2.6875 C 1.800781 2.8125 1.632812 2.875 1.4375 2.875 C 1.144531 2.707031 0.914062 2.425781 0.75 2.03125 C 0.582031 1.632812 0.5 1.144531 0.5 0.5625 C 0.5 -0.0195312 0.671875 -0.601562 1.015625 -1.1875 C 1.410156 -1.875 1.894531 -2.21875 2.46875 -2.21875 C 2.8125 -2.1875 3.285156 -2 3.890625 -1.65625 L 4.0625 -1.5625 C 4.75 -1.144531 5.332031 -0.9375 5.8125 -0.9375 C 6.519531 -0.9375 7.128906 -1.179688 7.640625 -1.671875 C 8.160156 -2.160156 8.421875 -2.679688 8.421875 -3.234375 C 8.421875 -4.085938 8.101562 -4.78125 7.46875 -5.3125 C 6.832031 -5.851562 5.875 -6.125 4.59375 -6.125 L 4.484375 -6.125 C 4.367188 -6.113281 4.269531 -6.113281 4.1875 -6.125 L 2.75 -6.125 C 2.34375 -6.125 2 -6.226562 1.71875 -6.4375 C 1.4375 -6.644531 1.296875 -6.847656 1.296875 -7.046875 C 1.296875 -7.523438 1.828125 -8.078125 2.890625 -8.703125 C 3.960938 -9.328125 4.769531 -9.910156 5.3125 -10.453125 C 5.570312 -10.722656 5.878906 -11.125 6.234375 -11.65625 C 6.585938 -12.195312 6.894531 -12.46875 7.15625 -12.46875 C 7.5625 -12.46875 7.765625 -12.332031 7.765625 -12.0625 L 7.75 -11.9375 C 7.539062 -11.34375 7.203125 -10.796875 6.734375 -10.296875 C 6.472656 -10.003906 6.0625 -9.644531 5.5 -9.21875 C 4.9375 -8.789062 4.34375 -8.398438 3.71875 -8.046875 C 3.09375 -7.703125 2.78125 -7.46875 2.78125 -7.34375 C 2.78125 -7.21875 2.863281 -7.15625 3.03125 -7.15625 C 3.101562 -7.15625 3.15625 -7.144531 3.1875 -7.125 L 4.671875 -7.125 C 4.710938 -7.113281 4.753906 -7.101562 4.796875 -7.09375 Z M 4.796875 -7.09375 "/></g></g></g></svg>